<mxfile host="65bd71144e">
    <diagram id="lKAGmuVP7pNokwguH7sa" name="Page-1">
        <mxGraphModel dx="1003" dy="633" grid="1" gridSize="10" guides="1" tooltips="1" connect="1" arrows="1" fold="1" page="1" pageScale="1" pageWidth="827" pageHeight="1169" math="0" shadow="0">
            <root>
                <mxCell id="0"/>
                <mxCell id="1" parent="0"/>
                <mxCell id="4" value="" style="rounded=1;whiteSpace=wrap;html=1;gradientColor=#ffffff;fillColor=#FFE6CC;fontFamily=Georgia;" parent="1" vertex="1">
                    <mxGeometry x="40" y="40" width="440" height="490" as="geometry"/>
                </mxCell>
                <mxCell id="25" style="edgeStyle=orthogonalEdgeStyle;rounded=0;orthogonalLoop=1;jettySize=auto;html=1;exitX=1;exitY=0.5;exitDx=0;exitDy=0;entryX=0;entryY=0.5;entryDx=0;entryDy=0;strokeWidth=2;" edge="1" parent="1" source="5" target="6">
                    <mxGeometry relative="1" as="geometry"/>
                </mxCell>
                <mxCell id="5" value="INIT" style="rounded=1;whiteSpace=wrap;html=1;fontFamily=Georgia;strokeColor=#FF2008;strokeWidth=3;" parent="1" vertex="1">
                    <mxGeometry x="80" y="60" width="90" height="40" as="geometry"/>
                </mxCell>
                <mxCell id="26" style="edgeStyle=orthogonalEdgeStyle;rounded=0;orthogonalLoop=1;jettySize=auto;html=1;exitX=0.5;exitY=1;exitDx=0;exitDy=0;entryX=0.5;entryY=0;entryDx=0;entryDy=0;strokeWidth=2;" edge="1" parent="1" source="6" target="7">
                    <mxGeometry relative="1" as="geometry"/>
                </mxCell>
                <mxCell id="6" value="Upload seeds" style="rounded=1;whiteSpace=wrap;html=1;fontFamily=Georgia;" parent="1" vertex="1">
                    <mxGeometry x="210" y="60" width="90" height="40" as="geometry"/>
                </mxCell>
                <mxCell id="27" style="edgeStyle=orthogonalEdgeStyle;rounded=1;orthogonalLoop=1;jettySize=auto;html=1;exitX=0.5;exitY=1;exitDx=0;exitDy=0;entryX=0.5;entryY=0;entryDx=0;entryDy=0;strokeWidth=2;" edge="1" parent="1" source="7" target="8">
                    <mxGeometry relative="1" as="geometry"/>
                </mxCell>
                <mxCell id="7" value="Cull Queue" style="rounded=1;whiteSpace=wrap;html=1;fontFamily=Georgia;strokeColor=#FF2008;strokeWidth=3;glass=0;sketch=0;shadow=0;" parent="1" vertex="1">
                    <mxGeometry x="210" y="120" width="90" height="40" as="geometry"/>
                </mxCell>
                <mxCell id="44" style="edgeStyle=orthogonalEdgeStyle;orthogonalLoop=1;jettySize=auto;html=1;exitX=0.5;exitY=1;exitDx=0;exitDy=0;entryX=1;entryY=0.5;entryDx=0;entryDy=0;rounded=1;strokeWidth=2;" edge="1" parent="1" source="8" target="7">
                    <mxGeometry relative="1" as="geometry">
                        <Array as="points">
                            <mxPoint x="255" y="510"/>
                            <mxPoint x="450" y="510"/>
                            <mxPoint x="450" y="140"/>
                        </Array>
                    </mxGeometry>
                </mxCell>
                <mxCell id="8" value="" style="rounded=1;whiteSpace=wrap;html=1;fontFamily=Georgia;fillColor=#FFE8E8;" parent="1" vertex="1">
                    <mxGeometry x="80" y="180" width="350" height="320" as="geometry"/>
                </mxCell>
                <mxCell id="28" style="edgeStyle=orthogonalEdgeStyle;rounded=1;orthogonalLoop=1;jettySize=auto;html=1;exitX=1;exitY=0.25;exitDx=0;exitDy=0;entryX=0;entryY=0.5;entryDx=0;entryDy=0;strokeWidth=2;" edge="1" parent="1" source="9" target="11">
                    <mxGeometry relative="1" as="geometry"/>
                </mxCell>
                <mxCell id="9" value="" style="rounded=1;whiteSpace=wrap;html=1;fontFamily=Georgia;fillColor=#FFE6CC;gradientColor=#ffffff;" parent="1" vertex="1">
                    <mxGeometry x="120" y="200" width="150" height="80" as="geometry"/>
                </mxCell>
                <mxCell id="33" style="edgeStyle=orthogonalEdgeStyle;rounded=1;orthogonalLoop=1;jettySize=auto;html=1;exitX=0;exitY=0.5;exitDx=0;exitDy=0;strokeWidth=2;entryX=0.197;entryY=0.008;entryDx=0;entryDy=0;entryPerimeter=0;" edge="1" parent="1" source="10" target="12">
                    <mxGeometry relative="1" as="geometry">
                        <mxPoint x="161" y="331" as="targetPoint"/>
                        <Array as="points">
                            <mxPoint x="167" y="295"/>
                        </Array>
                    </mxGeometry>
                </mxCell>
                <mxCell id="10" value="Trim&lt;br&gt;Case" style="rounded=1;whiteSpace=wrap;html=1;fontFamily=Georgia;strokeColor=#FF2008;strokeWidth=3;" parent="1" vertex="1">
                    <mxGeometry x="320" y="275" width="70" height="40" as="geometry"/>
                </mxCell>
                <mxCell id="31" style="edgeStyle=orthogonalEdgeStyle;rounded=1;orthogonalLoop=1;jettySize=auto;html=1;exitX=1;exitY=0.5;exitDx=0;exitDy=0;entryX=1;entryY=0.5;entryDx=0;entryDy=0;strokeWidth=2;" edge="1" parent="1" source="11" target="10">
                    <mxGeometry relative="1" as="geometry"/>
                </mxCell>
                <mxCell id="11" value="Calculate&lt;br&gt;Score" style="rounded=1;whiteSpace=wrap;html=1;fontFamily=Georgia;" parent="1" vertex="1">
                    <mxGeometry x="320" y="200" width="70" height="40" as="geometry"/>
                </mxCell>
                <mxCell id="12" value="" style="rounded=1;whiteSpace=wrap;html=1;fillColor=#FFE6CC;gradientColor=#ffffff;fontFamily=Georgia;" parent="1" vertex="1">
                    <mxGeometry x="110" y="330" width="290" height="150" as="geometry"/>
                </mxCell>
                <mxCell id="39" style="edgeStyle=orthogonalEdgeStyle;rounded=0;orthogonalLoop=1;jettySize=auto;html=1;exitX=0.5;exitY=1;exitDx=0;exitDy=0;entryX=0.5;entryY=0;entryDx=0;entryDy=0;strokeWidth=2;" edge="1" parent="1" source="13" target="14">
                    <mxGeometry relative="1" as="geometry"/>
                </mxCell>
                <mxCell id="13" value="Apply&lt;br&gt;Mutation" style="rounded=1;whiteSpace=wrap;html=1;fontFamily=Georgia;" parent="1" vertex="1">
                    <mxGeometry x="130" y="360" width="70" height="40" as="geometry"/>
                </mxCell>
                <mxCell id="40" style="edgeStyle=orthogonalEdgeStyle;rounded=0;orthogonalLoop=1;jettySize=auto;html=1;exitX=1;exitY=0.5;exitDx=0;exitDy=0;entryX=0;entryY=0.5;entryDx=0;entryDy=0;strokeWidth=2;" edge="1" parent="1" source="14" target="15">
                    <mxGeometry relative="1" as="geometry"/>
                </mxCell>
                <mxCell id="14" value="Exec&lt;br&gt;Program" style="rounded=1;whiteSpace=wrap;html=1;fontFamily=Georgia;" parent="1" vertex="1">
                    <mxGeometry x="130" y="420" width="70" height="40" as="geometry"/>
                </mxCell>
                <mxCell id="41" style="edgeStyle=orthogonalEdgeStyle;rounded=0;orthogonalLoop=1;jettySize=auto;html=1;exitX=0.5;exitY=0;exitDx=0;exitDy=0;entryX=0.5;entryY=1;entryDx=0;entryDy=0;strokeWidth=2;" edge="1" parent="1" source="15" target="19">
                    <mxGeometry relative="1" as="geometry"/>
                </mxCell>
                <mxCell id="15" value="Collect&lt;br&gt;exec info" style="rounded=1;whiteSpace=wrap;html=1;fontFamily=Georgia;strokeColor=#FF2008;strokeWidth=3;" parent="1" vertex="1">
                    <mxGeometry x="220" y="420" width="70" height="40" as="geometry"/>
                </mxCell>
                <mxCell id="16" value="Check&lt;br&gt;ERU" style="rounded=1;whiteSpace=wrap;html=1;fontFamily=Georgia;fillColor=#FF7373;" parent="1" vertex="1">
                    <mxGeometry x="310" y="420" width="70" height="40" as="geometry"/>
                </mxCell>
                <mxCell id="43" style="edgeStyle=orthogonalEdgeStyle;rounded=0;orthogonalLoop=1;jettySize=auto;html=1;exitX=0.5;exitY=1;exitDx=0;exitDy=0;entryX=0.5;entryY=0;entryDx=0;entryDy=0;strokeWidth=2;" edge="1" parent="1" source="17" target="16">
                    <mxGeometry relative="1" as="geometry"/>
                </mxCell>
                <mxCell id="17" value="Check coverage" style="rounded=1;whiteSpace=wrap;html=1;fontFamily=Georgia;" parent="1" vertex="1">
                    <mxGeometry x="310" y="360" width="70" height="40" as="geometry"/>
                </mxCell>
                <mxCell id="42" style="edgeStyle=orthogonalEdgeStyle;rounded=0;orthogonalLoop=1;jettySize=auto;html=1;exitX=1;exitY=0.5;exitDx=0;exitDy=0;entryX=0;entryY=0.5;entryDx=0;entryDy=0;strokeWidth=2;" edge="1" parent="1" source="19" target="17">
                    <mxGeometry relative="1" as="geometry"/>
                </mxCell>
                <mxCell id="19" value="Process&lt;br&gt;exec info" style="rounded=1;whiteSpace=wrap;html=1;fontFamily=Georgia;strokeColor=#FF2008;strokeWidth=3;" parent="1" vertex="1">
                    <mxGeometry x="220" y="360" width="70" height="40" as="geometry"/>
                </mxCell>
                <mxCell id="20" value="&lt;font style=&quot;font-size: 16px;&quot;&gt;&lt;span style=&quot;font-size: 16px;&quot;&gt;waffle-fuzz&lt;/span&gt;&lt;/font&gt;" style="text;html=1;align=center;verticalAlign=middle;resizable=0;points=[];autosize=1;strokeColor=none;fontFamily=Georgia;strokeWidth=1;fontSize=16;fontStyle=1" parent="1" vertex="1">
                    <mxGeometry x="350" y="70" width="90" height="20" as="geometry"/>
                </mxCell>
                <mxCell id="21" value="Fuzz one" style="text;html=1;align=center;verticalAlign=middle;resizable=0;points=[];autosize=1;strokeColor=none;fontFamily=Georgia;fontSize=14;fontStyle=1;labelBackgroundColor=none;labelBorderColor=none;shadow=0;sketch=0;glass=0;" parent="1" vertex="1">
                    <mxGeometry x="220" y="180" width="70" height="20" as="geometry"/>
                </mxCell>
                <mxCell id="22" value="Mutate and Run" style="text;html=1;align=center;verticalAlign=middle;resizable=0;points=[];autosize=1;strokeColor=none;fontFamily=Georgia;" parent="1" vertex="1">
                    <mxGeometry x="210" y="335" width="90" height="20" as="geometry"/>
                </mxCell>
                <mxCell id="23" value="Calibrate Case" style="text;html=1;align=center;verticalAlign=middle;resizable=0;points=[];autosize=1;strokeColor=none;fontFamily=Georgia;" parent="1" vertex="1">
                    <mxGeometry x="150" y="200" width="90" height="20" as="geometry"/>
                </mxCell>
                <mxCell id="24" value="Update bitmap&lt;br&gt;score" style="rounded=1;whiteSpace=wrap;html=1;fontFamily=Georgia;strokeColor=#FF2008;strokeWidth=3;" vertex="1" parent="1">
                    <mxGeometry x="150" y="230" width="90" height="40" as="geometry"/>
                </mxCell>
                <mxCell id="55" style="edgeStyle=orthogonalEdgeStyle;rounded=1;orthogonalLoop=1;jettySize=auto;html=1;exitX=1;exitY=0.75;exitDx=0;exitDy=0;entryX=1;entryY=0.25;entryDx=0;entryDy=0;fontSize=14;strokeWidth=2;" edge="1" parent="1" source="12" target="12">
                    <mxGeometry relative="1" as="geometry"/>
                </mxCell>
            </root>
        </mxGraphModel>
    </diagram>
</mxfile>